<?xml version="1.0" encoding="utf-8"?>
<!-- Generator: Adobe Illustrator 27.7.0, SVG Export Plug-In . SVG Version: 6.00 Build 0)  -->
<svg version="1.1" id="Layer_1" xmlns="http://www.w3.org/2000/svg" xmlns:xlink="http://www.w3.org/1999/xlink" x="0px" y="0px"
	 viewBox="0 0 312.5 54.5" style="enable-background:new 0 0 312.5 54.5;" xml:space="preserve">
<style type="text/css">
	.st0{fill:#FFFFFF;}
	.st1{opacity:0.7;}
	.st2{fill:#00AA8E;}
</style>
<path class="st0" d="M7.2,34.8c0.4,3.1,3.6,5.1,7.7,5.1s7-2,7-4.7c0-2.4-1.8-3.8-6.2-4.8l-4.8-1C4.1,27.9,0.7,24.5,0.7,19
	c0-6.8,5.9-11.4,14.2-11.4c8.6,0,14.1,4.4,14.2,11.2h-7.3c-0.3-3.1-3-5-6.9-5s-6.4,1.8-6.4,4.6c0,2.3,1.8,3.6,6.1,4.6l4.5,1
	c7.4,1.6,10.7,4.8,10.7,10.4c0,7.2-5.8,11.8-15,11.8C5.9,46.2,0.2,42,0,35L7.2,34.8z M46.9,17h7.2v5.1h0.2c1.2-3.4,4.5-5.7,8.1-5.6
	c4.1,0,6.9,2.1,7.9,5.8h0.2c1.4-3.6,4.9-5.9,8.8-5.8c5.6,0,9.3,3.8,9.3,9.5v19.2h-7.5V28c0-3.3-1.7-5.1-4.7-5.1s-4.9,2.2-4.9,5.4
	v17.1h-7.2V27.7c0-3-1.8-4.9-4.7-4.9s-5,2.3-5,5.5v17h-7.5L46.9,17z M121.4,31.1c0,9-4.4,14.5-11.5,14.5c-4.1,0-7.2-1.9-8.8-5.1H101
	v14h-7.5V17h7.4v4.8h0.2c1.7-3.3,5.1-5.3,8.8-5.2C117,16.7,121.4,22.2,121.4,31.1L121.4,31.1z M113.7,31.1c0-5.1-2.5-8.4-6.4-8.4
	s-6.4,3.4-6.4,8.4s2.6,8.4,6.4,8.4S113.7,36.3,113.7,31.1L113.7,31.1z M125.6,6.4h7.6v38.9h-7.5L125.6,6.4z M164.1,36.7
	c-0.8,5.5-5.9,9.1-12.8,9.1c-8.6,0-13.9-5.5-13.9-14.5s5.3-14.8,13.6-14.8c8.1,0,13.3,5.4,13.3,14.1v2.3h-19.5v0.5
	c0,4.1,2.6,6.8,6.6,6.8c2.8,0,5.1-1.3,5.8-3.5H164.1z M144.9,28.2h12.2c-0.1-3.7-2.5-6.1-6-6.1S145.1,24.6,144.9,28.2L144.9,28.2z
	 M179.7,16.5c7,0,11.6,3.6,11.8,9h-6.9c-0.2-2.2-2-3.7-4.9-3.7c-2.7,0-4.5,1.2-4.5,3c0,1.4,1.2,2.4,3.8,3l5.3,1.1
	c5.7,1.3,7.9,3.5,7.9,7.7c0,5.5-5.1,9.1-12.5,9.1s-12.1-3.6-12.5-9h7.3c0.4,2.4,2.3,3.7,5.4,3.7s4.8-1.2,4.8-3c0-1.5-1-2.2-3.6-2.9
	l-5.2-1.2c-5.3-1.2-8.1-4-8.1-8.1C167.9,20,172.6,16.5,179.7,16.5L179.7,16.5z M221.7,36.7c-0.8,5.5-5.9,9.1-12.8,9.1
	c-8.6,0-13.9-5.5-13.9-14.5s5.3-14.8,13.6-14.8c8.1,0,13.3,5.4,13.3,14.1v2.3h-19.5v0.5c0,4.1,2.6,6.8,6.6,6.8
	c2.8,0,5.1-1.3,5.8-3.5H221.7z M202.5,28.2h12.2c-0.1-3.7-2.5-6.1-6-6.1S202.8,24.6,202.5,28.2L202.5,28.2z M226,17h7.2v5.1h0.1
	c1.6-3.6,4.5-5.5,8.8-5.5c6.3,0,9.8,4,9.8,10.6v18.2h-7.5V28.8c0-3.8-1.8-5.9-5.3-5.9s-5.8,2.6-5.8,6.3v16.2h-7.5V17H226z
	 M268.4,16.5c7,0,11.6,3.6,11.8,9h-7c-0.2-2.2-2-3.7-4.9-3.7c-2.7,0-4.5,1.2-4.5,3c0,1.4,1.2,2.4,3.8,3l5.3,1.2c5.7,1.3,8,3.5,8,7.7
	c0,5.5-5.1,9.1-12.5,9.1s-12.1-3.6-12.5-9h7.3c0.4,2.4,2.3,3.7,5.4,3.7s4.8-1.2,4.8-3c0-1.5-1-2.2-3.5-2.9l-5.2-1.2
	c-5.3-1.2-8.1-4-8.1-8.1C256.6,20,261.3,16.5,268.4,16.5L268.4,16.5z M310.4,36.7c-0.8,5.5-5.9,9.1-12.8,9.1
	c-8.6,0-13.9-5.5-13.9-14.5s5.3-14.8,13.6-14.8c8.1,0,13.3,5.4,13.3,14.1v2.3h-19.5v0.5c0,4.1,2.6,6.8,6.6,6.8
	c2.8,0,5.1-1.3,5.8-3.5H310.4z M291.2,28.3h12.2c-0.1-3.7-2.5-6.1-6-6.1S291.5,24.6,291.2,28.3z M42.1,45.2h-7.7V16.9h7.7V45.2z"/>
<g class="st1">
	<rect x="35.1" y="1.6" class="st0" width="6.2" height="6.2"/>
</g>
<circle class="st2" cx="38.2" cy="4.7" r="4.7"/>
<g>
	<path class="st0" d="M309.7,17.8c-0.4,0-0.8-0.1-1.1-0.2c-0.4-0.2-0.7-0.4-0.9-0.6c-0.3-0.3-0.5-0.6-0.6-0.9
		c-0.2-0.4-0.2-0.7-0.2-1.1s0.1-0.8,0.2-1.1c0.1-0.3,0.4-0.7,0.6-0.9c0.3-0.3,0.6-0.5,0.9-0.6c0.4-0.2,0.7-0.2,1.1-0.2
		s0.8,0.1,1.1,0.2c0.4,0.2,0.7,0.4,0.9,0.6c0.3,0.3,0.5,0.6,0.6,0.9c0.2,0.4,0.2,0.7,0.2,1.1s-0.1,0.8-0.2,1.1
		c-0.1,0.4-0.4,0.7-0.6,0.9c-0.3,0.3-0.6,0.5-0.9,0.6C310.5,17.7,310.1,17.8,309.7,17.8z M309.7,17.1c0.4,0,0.8-0.1,1.1-0.3
		s0.6-0.5,0.8-0.8s0.3-0.7,0.3-1.1s-0.1-0.8-0.3-1.1s-0.5-0.6-0.8-0.8c-0.3-0.2-0.7-0.3-1.1-0.3s-0.8,0.1-1.1,0.3
		c-0.3,0.2-0.6,0.5-0.8,0.8s-0.3,0.7-0.3,1.1s0.1,0.8,0.3,1.1s0.5,0.6,0.8,0.8S309.3,17.1,309.7,17.1z M308.7,16.2v-2.8h1.2
		c0.3,0,0.5,0.1,0.7,0.3c0.2,0.2,0.3,0.4,0.3,0.6s0,0.3-0.1,0.5s-0.2,0.3-0.4,0.3l0.5,1.1h-0.5l-0.5-1h-0.7v1H308.7z M309.2,14.8
		h0.8c0.1,0,0.2,0,0.3-0.1c0.1-0.1,0.1-0.2,0.1-0.3c0-0.1,0-0.3-0.1-0.3S310.1,14,310,14h-0.8V14.8z"/>
</g>
</svg>
